<svg width="49" height="48" viewBox="0 0 49 48" fill="none" xmlns="http://www.w3.org/2000/svg">
<path d="M48.3771 24C48.3771 37.2548 37.6319 48 24.3771 48C11.1222 48 0.377075 37.2548 0.377075 24C0.377075 10.7452 11.1222 0 24.3771 0C37.6319 0 48.3771 10.7452 48.3771 24ZM5.17707 24C5.17707 34.6039 13.7732 43.2 24.3771 43.2C34.9809 43.2 43.5771 34.6039 43.5771 24C43.5771 13.3961 34.9809 4.8 24.3771 4.8C13.7732 4.8 5.17707 13.3961 5.17707 24Z" fill="#ECFDF5"/>
<path d="M34.3142 4.82155C34.924 3.64466 34.4676 2.18398 33.2357 1.69472C29.0905 0.0483783 24.5519 -0.416093 20.131 0.378596C14.9197 1.31536 10.1644 3.94917 6.60582 7.86983C3.04721 11.7905 0.885019 16.7779 0.455991 22.0553C0.0269624 27.3328 1.35518 32.6039 4.23378 37.0479C7.11239 41.4919 11.3798 44.8592 16.3714 46.6254C21.3629 48.3916 26.7985 48.4576 31.8314 46.813C36.8644 45.1684 41.2122 41.9057 44.1978 37.5329C46.7306 33.8232 48.1624 29.4914 48.3548 25.0354C48.4119 23.7111 47.2655 22.6974 45.9422 22.7727C44.6188 22.848 43.6228 23.9851 43.5325 25.3076C43.3008 28.7031 42.169 31.9918 40.2337 34.8263C37.8452 38.3245 34.3669 40.9347 30.3406 42.2504C26.3142 43.566 21.9658 43.5133 17.9725 42.1003C13.9792 40.6873 10.5653 37.9935 8.26244 34.4383C5.95956 30.8831 4.89698 26.6662 5.24021 22.4443C5.58343 18.2223 7.31318 14.2324 10.1601 11.0959C13.007 7.95933 16.8112 5.85229 20.9802 5.10288C24.3583 4.49565 27.8222 4.80738 31.0157 5.9842C32.2595 6.4425 33.7044 5.99843 34.3142 4.82155Z" fill="#047857"/>
<path d="M14.1395 23.428C13.3075 23.012 12.8915 22.356 12.8915 21.46C12.8915 21.028 12.9995 20.632 13.2155 20.272C13.4315 19.912 13.7555 19.628 14.1875 19.42C14.6195 19.204 15.1475 19.096 15.7715 19.096C16.3875 19.096 16.9115 19.204 17.3435 19.42C17.7835 19.628 18.1115 19.912 18.3275 20.272C18.5435 20.632 18.6515 21.028 18.6515 21.46C18.6515 21.908 18.5355 22.304 18.3035 22.648C18.0795 22.984 17.7795 23.244 17.4035 23.428C17.8595 23.596 18.2195 23.872 18.4835 24.256C18.7475 24.632 18.8795 25.076 18.8795 25.588C18.8795 26.108 18.7475 26.568 18.4835 26.968C18.2195 27.368 17.8515 27.676 17.3795 27.892C16.9075 28.108 16.3715 28.216 15.7715 28.216C15.1715 28.216 14.6355 28.108 14.1635 27.892C13.6995 27.676 13.3355 27.368 13.0715 26.968C12.8075 26.568 12.6755 26.108 12.6755 25.588C12.6755 25.068 12.8075 24.62 13.0715 24.244C13.3355 23.868 13.6915 23.596 14.1395 23.428ZM17.3435 21.628C17.3435 21.18 17.2035 20.836 16.9235 20.596C16.6435 20.356 16.2595 20.236 15.7715 20.236C15.2915 20.236 14.9115 20.356 14.6315 20.596C14.3515 20.836 14.2115 21.184 14.2115 21.64C14.2115 22.04 14.3555 22.368 14.6435 22.624C14.9395 22.872 15.3155 22.996 15.7715 22.996C16.2275 22.996 16.6035 22.868 16.8995 22.612C17.1955 22.356 17.3435 22.028 17.3435 21.628ZM15.7715 24.028C15.2435 24.028 14.8115 24.16 14.4755 24.424C14.1475 24.68 13.9835 25.052 13.9835 25.54C13.9835 25.996 14.1435 26.368 14.4635 26.656C14.7835 26.936 15.2195 27.076 15.7715 27.076C16.3155 27.076 16.7435 26.932 17.0555 26.644C17.3755 26.356 17.5355 25.988 17.5355 25.54C17.5355 25.06 17.3715 24.688 17.0435 24.424C16.7235 24.16 16.2995 24.028 15.7715 24.028ZM20.3158 23.512C20.3158 22.128 20.5478 21.048 21.0118 20.272C21.4838 19.488 22.2918 19.096 23.4358 19.096C24.5798 19.096 25.3838 19.488 25.8478 20.272C26.3198 21.048 26.5558 22.128 26.5558 23.512C26.5558 24.912 26.3198 26.008 25.8478 26.8C25.3838 27.584 24.5798 27.976 23.4358 27.976C22.2918 27.976 21.4838 27.584 21.0118 26.8C20.5478 26.008 20.3158 24.912 20.3158 23.512ZM25.2118 23.512C25.2118 22.864 25.1678 22.316 25.0798 21.868C24.9998 21.42 24.8318 21.056 24.5758 20.776C24.3198 20.488 23.9398 20.344 23.4358 20.344C22.9318 20.344 22.5518 20.488 22.2958 20.776C22.0398 21.056 21.8678 21.42 21.7798 21.868C21.6998 22.316 21.6598 22.864 21.6598 23.512C21.6598 24.184 21.6998 24.748 21.7798 25.204C21.8598 25.66 22.0278 26.028 22.2838 26.308C22.5478 26.588 22.9318 26.728 23.4358 26.728C23.9398 26.728 24.3198 26.588 24.5758 26.308C24.8398 26.028 25.0118 25.66 25.0918 25.204C25.1718 24.748 25.2118 24.184 25.2118 23.512ZM27.7873 21.364C27.7873 20.78 27.9553 20.324 28.2913 19.996C28.6353 19.66 29.0753 19.492 29.6113 19.492C30.1473 19.492 30.5833 19.66 30.9193 19.996C31.2633 20.324 31.4353 20.78 31.4353 21.364C31.4353 21.948 31.2633 22.408 30.9193 22.744C30.5833 23.08 30.1473 23.248 29.6113 23.248C29.0753 23.248 28.6353 23.08 28.2913 22.744C27.9553 22.408 27.7873 21.948 27.7873 21.364ZM35.1073 19.648L30.3193 28H28.9753L33.7633 19.648H35.1073ZM29.6113 20.32C29.1073 20.32 28.8553 20.668 28.8553 21.364C28.8553 22.068 29.1073 22.42 29.6113 22.42C29.8513 22.42 30.0353 22.336 30.1633 22.168C30.2993 21.992 30.3673 21.724 30.3673 21.364C30.3673 20.668 30.1153 20.32 29.6113 20.32ZM32.6713 26.272C32.6713 25.688 32.8393 25.232 33.1753 24.904C33.5193 24.568 33.9593 24.4 34.4953 24.4C35.0233 24.4 35.4553 24.568 35.7913 24.904C36.1353 25.232 36.3073 25.688 36.3073 26.272C36.3073 26.856 36.1353 27.316 35.7913 27.652C35.4553 27.988 35.0233 28.156 34.4953 28.156C33.9593 28.156 33.5193 27.988 33.1753 27.652C32.8393 27.316 32.6713 26.856 32.6713 26.272ZM34.4833 25.228C33.9793 25.228 33.7273 25.576 33.7273 26.272C33.7273 26.968 33.9793 27.316 34.4833 27.316C34.9873 27.316 35.2393 26.968 35.2393 26.272C35.2393 25.576 34.9873 25.228 34.4833 25.228Z" fill="#11263C"/>
</svg>
