<svg width="33" height="33" viewBox="0 0 40 40" fill="none" xmlns="http://www.w3.org/2000/svg">
<path d="M5 11.25C5 9.5924 5.65848 8.00269 6.83058 6.83058C8.00269 5.65848 9.5924 5 11.25 5H28.75C30.4076 5 31.9973 5.65848 33.1694 6.83058C34.3415 8.00269 35 9.5924 35 11.25V28.75C35 30.4076 34.3415 31.9973 33.1694 33.1694C31.9973 34.3415 30.4076 35 28.75 35H11.25C9.5924 35 8.00269 34.3415 6.83058 33.1694C5.65848 31.9973 5 30.4076 5 28.75V11.25ZM11.25 7.5C10.2554 7.5 9.30161 7.89509 8.59835 8.59835C7.89509 9.30161 7.5 10.2554 7.5 11.25V28.75C7.5 29.7446 7.89509 30.6984 8.59835 31.4017C9.30161 32.1049 10.2554 32.5 11.25 32.5H28.75C29.7446 32.5 30.6984 32.1049 31.4017 31.4017C32.1049 30.6984 32.5 29.7446 32.5 28.75V11.25C32.5 10.2554 32.1049 9.30161 31.4017 8.59835C30.6984 7.89509 29.7446 7.5 28.75 7.5H11.25ZM21.25 26.25C21.25 25.9185 21.3817 25.6005 21.6161 25.3661C21.8505 25.1317 22.1685 25 22.5 25H28.125C28.4565 25 28.7745 25.1317 29.0089 25.3661C29.2433 25.6005 29.375 25.9185 29.375 26.25C29.375 26.5815 29.2433 26.8995 29.0089 27.1339C28.7745 27.3683 28.4565 27.5 28.125 27.5H22.5C22.1685 27.5 21.8505 27.3683 21.6161 27.1339C21.3817 26.8995 21.25 26.5815 21.25 26.25ZM22.5 15C22.1685 15 21.8505 15.1317 21.6161 15.3661C21.3817 15.6005 21.25 15.9185 21.25 16.25C21.25 16.5815 21.3817 16.8995 21.6161 17.1339C21.8505 17.3683 22.1685 17.5 22.5 17.5H28.125C28.4565 17.5 28.7745 17.3683 29.0089 17.1339C29.2433 16.8995 29.375 16.5815 29.375 16.25C29.375 15.9185 29.2433 15.6005 29.0089 15.3661C28.7745 15.1317 28.4565 15 28.125 15H22.5ZM18.385 22.865C18.5014 22.9811 18.5938 23.1191 18.6568 23.2709C18.7198 23.4228 18.7522 23.5856 18.7522 23.75C18.7522 23.9144 18.7198 24.0772 18.6568 24.2291C18.5938 24.3809 18.5014 24.5189 18.385 24.635L14.635 28.385C14.5189 28.5014 14.3809 28.5938 14.2291 28.6568C14.0772 28.7198 13.9144 28.7522 13.75 28.7522C13.5856 28.7522 13.4228 28.7198 13.2709 28.6568C13.1191 28.5938 12.9811 28.5014 12.865 28.385L10.995 26.515C10.8788 26.3988 10.7866 26.2608 10.7237 26.109C10.6608 25.9571 10.6284 25.7944 10.6284 25.63C10.6284 25.4656 10.6608 25.3029 10.7237 25.151C10.7866 24.9992 10.8788 24.8612 10.995 24.745C11.2297 24.5103 11.5481 24.3784 11.88 24.3784C12.0444 24.3784 12.2071 24.4108 12.359 24.4737C12.5108 24.5366 12.6488 24.6288 12.765 24.745L13.75 25.7325L16.615 22.865C16.7311 22.7486 16.8691 22.6562 17.0209 22.5932C17.1728 22.5302 17.3356 22.4978 17.5 22.4978C17.6644 22.4978 17.8272 22.5302 17.9791 22.5932C18.1309 22.6562 18.2689 22.7486 18.385 22.865ZM18.385 14.635C18.5012 14.5188 18.5934 14.3808 18.6563 14.229C18.7192 14.0771 18.7516 13.9144 18.7516 13.75C18.7516 13.5856 18.7192 13.4229 18.6563 13.271C18.5934 13.1192 18.5012 12.9812 18.385 12.865C18.2688 12.7488 18.1308 12.6566 17.979 12.5937C17.8271 12.5308 17.6644 12.4984 17.5 12.4984C17.3356 12.4984 17.1729 12.5308 17.021 12.5937C16.8692 12.6566 16.7312 12.7488 16.615 12.865L13.75 15.7325L12.765 14.745C12.5303 14.5103 12.2119 14.3784 11.88 14.3784C11.5481 14.3784 11.2297 14.5103 10.995 14.745C10.7603 14.9797 10.6284 15.2981 10.6284 15.63C10.6284 15.9619 10.7603 16.2803 10.995 16.515L12.865 18.385C12.9811 18.5014 13.1191 18.5938 13.2709 18.6568C13.4228 18.7198 13.5856 18.7522 13.75 18.7522C13.9144 18.7522 14.0772 18.7198 14.2291 18.6568C14.3809 18.5938 14.5189 18.5014 14.635 18.385L18.385 14.635Z" fill="#064E3B"/>
</svg>
