<svg width="25" height="25" viewBox="0 0 30 30" fill="none" xmlns="http://www.w3.org/2000/svg">
<path fill-rule="evenodd" clip-rule="evenodd" d="M13 0.64C13.577 0.224569 14.2788 0 15 0C15.7212 0 16.423 0.224569 17 0.64L28.6667 9.04C29.0807 9.33807 29.4167 9.72458 29.6481 10.1689C29.8795 10.6133 30 11.1032 30 11.6V26.8C30 27.6487 29.6488 28.4626 29.0237 29.0627C28.3986 29.6629 27.5507 30 26.6667 30H18.5C18.0138 30 17.5475 29.8146 17.2036 29.4845C16.8598 29.1544 16.6667 28.7068 16.6667 28.24V18.8C16.6667 18.3757 16.4911 17.9687 16.1785 17.6686C15.8659 17.3686 15.442 17.2 15 17.2C14.558 17.2 14.134 17.3686 13.8215 17.6686C13.5089 17.9687 13.3333 18.3757 13.3333 18.8V28.24C13.3333 28.4711 13.2859 28.7 13.1938 28.9135C13.1016 29.1271 12.9666 29.3211 12.7964 29.4845C12.6261 29.6479 12.424 29.7776 12.2016 29.866C11.9792 29.9545 11.7408 30 11.5 30H3.33333C2.44928 30 1.60143 29.6629 0.976311 29.0627C0.351189 28.4626 0 27.6487 0 26.8V11.6C0 11.1032 0.120484 10.6133 0.351909 10.1689C0.583335 9.72458 0.919346 9.33807 1.33333 9.04L13 0.64ZM15 3.2L3.33333 11.6V26.8H10V18.8C10 17.527 10.5268 16.3061 11.4645 15.4059C12.4021 14.5057 13.6739 14 15 14C16.3261 14 17.5979 14.5057 18.5355 15.4059C19.4732 16.3061 20 17.527 20 18.8V26.8H26.6667V11.6L15 3.2Z" fill="#064E3B"/>
</svg>
