<svg width="196" height="91" viewBox="0 0 196 91" fill="none" xmlns="http://www.w3.org/2000/svg">
<path d="M34.629 54.318H54.957C55.969 54.318 56.717 54.362 57.201 54.45C57.729 54.494 58.323 54.692 58.983 55.044C60.171 55.66 60.765 57.376 60.765 60.192C60.765 63.272 59.951 65.076 58.323 65.604C57.575 65.868 56.431 66 54.891 66H28.755C25.675 66 23.871 65.164 23.343 63.492C23.079 62.788 22.947 61.666 22.947 60.126V23.43C22.947 21.186 23.365 19.668 24.201 18.876C25.037 18.04 26.621 17.622 28.953 17.622H54.957C55.969 17.622 56.717 17.666 57.201 17.754C57.729 17.798 58.323 17.996 58.983 18.348C60.171 18.964 60.765 20.68 60.765 23.496C60.765 26.576 59.951 28.38 58.323 28.908C57.575 29.172 56.431 29.304 54.891 29.304H34.629V35.97H47.697C48.709 35.97 49.457 36.014 49.941 36.102C50.469 36.146 51.063 36.344 51.723 36.696C52.911 37.312 53.505 39.028 53.505 41.844C53.505 44.924 52.669 46.728 50.997 47.256C50.249 47.52 49.105 47.652 47.565 47.652H34.629V54.318ZM122.917 17.886C125.865 18.942 127.339 20.35 127.339 22.11C127.339 22.682 127.075 23.76 126.547 25.344L113.875 61.974C113.787 62.282 113.633 62.656 113.413 63.096C113.193 63.536 112.599 64.13 111.631 64.878C110.707 65.582 109.585 65.934 108.265 65.934C106.989 65.934 105.867 65.582 104.899 64.878C103.975 64.13 103.359 63.404 103.051 62.7L95.3289 39.93C90.4449 54.362 87.9589 61.71 87.8709 61.974C87.7829 62.238 87.5849 62.612 87.2769 63.096C86.9689 63.58 86.6169 64.02 86.2209 64.416C85.2089 65.428 83.9989 65.934 82.5909 65.934C81.1829 65.934 80.0169 65.604 79.0929 64.944C78.2129 64.284 77.6189 63.624 77.3109 62.964L76.8489 61.974L64.1109 25.344C63.6269 23.892 63.3849 22.814 63.3849 22.11C63.3849 20.35 64.8589 18.964 67.8069 17.952C69.0829 17.512 70.2269 17.292 71.2389 17.292C72.2949 17.292 73.0869 17.644 73.6149 18.348C74.1869 19.052 74.6929 20.13 75.1329 21.582L82.3929 43.626L89.5869 21.912C90.2029 20.064 91.3249 18.788 92.9529 18.084C93.6569 17.776 94.5589 17.622 95.6589 17.622C96.8029 17.622 97.8589 17.996 98.8269 18.744C99.7949 19.448 100.411 20.152 100.675 20.856L108.265 43.758L115.525 21.582C115.877 20.57 116.163 19.822 116.383 19.338C116.603 18.854 116.999 18.392 117.571 17.952C118.187 17.468 118.935 17.226 119.815 17.226C120.695 17.226 121.729 17.446 122.917 17.886ZM167.996 57.816C168.656 59.4 168.986 60.544 168.986 61.248C168.986 62.92 167.622 64.328 164.894 65.472C163.486 66.088 162.342 66.396 161.462 66.396C160.626 66.396 159.922 66.198 159.35 65.802C158.822 65.362 158.426 64.922 158.162 64.482C157.722 63.646 156.006 59.664 153.014 52.536L150.968 52.668H142.652V60.126C142.652 61.138 142.608 61.908 142.52 62.436C142.476 62.92 142.278 63.492 141.926 64.152C141.31 65.34 139.594 65.934 136.778 65.934C133.698 65.934 131.894 65.12 131.366 63.492C131.102 62.744 130.97 61.6 130.97 60.06V23.43C130.97 22.418 130.992 21.67 131.036 21.186C131.124 20.658 131.344 20.064 131.696 19.404C132.312 18.216 134.028 17.622 136.844 17.622H151.1C154.972 17.622 158.734 19.03 162.386 21.846C164.146 23.21 165.598 25.058 166.742 27.39C167.886 29.722 168.458 32.318 168.458 35.178C168.458 40.15 166.808 44.242 163.508 47.454C164.476 49.786 165.972 53.24 167.996 57.816ZM142.652 40.986H151.1C152.376 40.986 153.652 40.502 154.928 39.534C156.204 38.566 156.842 37.114 156.842 35.178C156.842 33.242 156.204 31.79 154.928 30.822C153.652 29.81 152.332 29.304 150.968 29.304H142.652V40.986Z" fill="#047857"/>
<path d="M41.2716 61.4283H61.2916C62.2883 61.4283 63.025 61.4717 63.5016 61.5583C64.0216 61.6017 64.6066 61.7967 65.2566 62.1433C66.4266 62.75 67.0116 64.44 67.0116 67.2133C67.0116 70.2467 66.21 72.0233 64.6066 72.5433C63.87 72.8033 62.7433 72.9333 61.2266 72.9333H35.4866C32.4533 72.9333 30.6766 72.11 30.1566 70.4633C29.8966 69.77 29.7666 68.665 29.7666 67.1483V31.0083C29.7666 28.7983 30.1783 27.3033 31.0016 26.5233C31.825 25.7 33.385 25.2883 35.6816 25.2883H61.2916C62.2883 25.2883 63.025 25.3317 63.5016 25.4183C64.0216 25.4617 64.6066 25.6567 65.2566 26.0033C66.4266 26.61 67.0116 28.3 67.0116 31.0733C67.0116 34.1067 66.21 35.8833 64.6066 36.4033C63.87 36.6633 62.7433 36.7933 61.2266 36.7933H41.2716V43.3583H54.1416C55.1383 43.3583 55.875 43.4017 56.3516 43.4883C56.8716 43.5317 57.4566 43.7267 58.1066 44.0733C59.2766 44.68 59.8616 46.37 59.8616 49.1433C59.8616 52.1767 59.0383 53.9533 57.3916 54.4733C56.655 54.7333 55.5283 54.8633 54.0116 54.8633H41.2716V61.4283ZM128.222 25.5483C131.125 26.5883 132.577 27.975 132.577 29.7083C132.577 30.2717 132.317 31.3333 131.797 32.8933L119.317 68.9683C119.23 69.2717 119.078 69.64 118.862 70.0733C118.645 70.5067 118.06 71.0917 117.107 71.8283C116.197 72.5217 115.092 72.8683 113.792 72.8683C112.535 72.8683 111.43 72.5217 110.477 71.8283C109.567 71.0917 108.96 70.3767 108.657 69.6833L101.052 47.2583C96.2418 61.4717 93.7935 68.7083 93.7068 68.9683C93.6201 69.2283 93.4251 69.5967 93.1218 70.0733C92.8185 70.55 92.4718 70.9833 92.0818 71.3733C91.0851 72.37 89.8935 72.8683 88.5068 72.8683C87.1201 72.8683 85.9718 72.5433 85.0618 71.8933C84.1951 71.2433 83.6101 70.5933 83.3068 69.9433L82.8518 68.9683L70.3068 32.8933C69.8301 31.4633 69.5918 30.4017 69.5918 29.7083C69.5918 27.975 71.0435 26.61 73.9468 25.6133C75.2035 25.18 76.3301 24.9633 77.3268 24.9633C78.3668 24.9633 79.1468 25.31 79.6668 26.0033C80.2301 26.6967 80.7285 27.7583 81.1618 29.1883L88.3118 50.8983L95.3968 29.5133C96.0035 27.6933 97.1085 26.4367 98.7118 25.7433C99.4051 25.44 100.293 25.2883 101.377 25.2883C102.503 25.2883 103.543 25.6567 104.497 26.3933C105.45 27.0867 106.057 27.78 106.317 28.4733L113.792 51.0283L120.942 29.1883C121.288 28.1917 121.57 27.455 121.787 26.9783C122.003 26.5017 122.393 26.0467 122.957 25.6133C123.563 25.1367 124.3 24.8983 125.167 24.8983C126.033 24.8983 127.052 25.115 128.222 25.5483ZM172.618 64.8733C173.268 66.4333 173.593 67.56 173.593 68.2533C173.593 69.9 172.25 71.2867 169.563 72.4133C168.177 73.02 167.05 73.3233 166.183 73.3233C165.36 73.3233 164.667 73.1283 164.103 72.7383C163.583 72.305 163.193 71.8717 162.933 71.4383C162.5 70.615 160.81 66.6933 157.863 59.6733L155.848 59.8033H147.658V67.1483C147.658 68.145 147.615 68.9033 147.528 69.4233C147.485 69.9 147.29 70.4633 146.943 71.1133C146.337 72.2833 144.647 72.8683 141.873 72.8683C138.84 72.8683 137.063 72.0667 136.543 70.4633C136.283 69.7267 136.153 68.6 136.153 67.0833V31.0083C136.153 30.0117 136.175 29.275 136.218 28.7983C136.305 28.2783 136.522 27.6933 136.868 27.0433C137.475 25.8733 139.165 25.2883 141.938 25.2883H155.978C159.792 25.2883 163.497 26.675 167.093 29.4483C168.827 30.7917 170.257 32.6117 171.383 34.9083C172.51 37.205 173.073 39.7617 173.073 42.5783C173.073 47.475 171.448 51.505 168.198 54.6683C169.152 56.965 170.625 60.3667 172.618 64.8733ZM147.658 48.2983H155.978C157.235 48.2983 158.492 47.8217 159.748 46.8683C161.005 45.915 161.633 44.485 161.633 42.5783C161.633 40.6717 161.005 39.2417 159.748 38.2883C158.492 37.2917 157.192 36.7933 155.848 36.7933H147.658V48.2983Z" fill="#047857" fill-opacity="0.15"/>
</svg>
