<svg width="30" height="30" viewBox="0 0 35 35" fill="none" xmlns="http://www.w3.org/2000/svg">
<path fill-rule="evenodd" clip-rule="evenodd" d="M17.5 2.1875C16.9199 2.1875 16.3635 2.41797 15.9532 2.8282C15.543 3.23844 15.3125 3.79484 15.3125 4.375V4.59375C12.8424 5.0988 10.6225 6.44137 9.02814 8.39445C7.43379 10.3475 6.56282 12.7913 6.56251 15.3125V24.0625L3.92657 26.9675C2.65126 28.3741 3.64876 30.625 5.54532 30.625H13.7113C14.0953 31.29 14.6475 31.8423 15.3126 32.2262C15.9777 32.6102 16.7321 32.8123 17.5 32.8123C18.2679 32.8123 19.0224 32.6102 19.6874 32.2262C20.3525 31.8423 20.9048 31.29 21.2888 30.625H29.4547C31.3513 30.625 32.3488 28.3719 31.0734 26.9675L28.4375 24.0625V15.3125C28.4372 12.7913 27.5662 10.3475 25.9719 8.39445C24.3775 6.44137 22.1576 5.0988 19.6875 4.59375V4.375C19.6875 3.79484 19.457 3.23844 19.0468 2.8282C18.6366 2.41797 18.0802 2.1875 17.5 2.1875ZM9.84376 25.3312L8.99064 26.2675L8.01501 27.3437H26.985L26.0072 26.2675L25.1563 25.3291V15.3125C25.1563 14.3071 24.9582 13.3115 24.5735 12.3826C24.1887 11.4537 23.6247 10.6097 22.9138 9.89871C22.2028 9.18776 21.3588 8.62381 20.4299 8.23905C19.501 7.85428 18.5054 7.65625 17.5 7.65625C16.4946 7.65625 15.499 7.85428 14.5701 8.23905C13.6412 8.62381 12.7972 9.18776 12.0862 9.89871C11.3753 10.6097 10.8113 11.4537 10.4266 12.3826C10.0418 13.3115 9.84376 14.3071 9.84376 15.3125V25.3312Z" fill="#064E3B"/>
</svg>
