<svg width="33" height="33" viewBox="0 0 40 40" fill="none" xmlns="http://www.w3.org/2000/svg">
<path d="M33.125 10.45C33.6978 10.7758 34.1735 11.2483 34.503 11.8189C34.8326 12.3896 35.0041 13.0377 35 13.6967V25.8367C35 27.185 34.2617 28.4283 33.07 29.0833L21.82 36.2C21.2623 36.5062 20.6363 36.6668 20 36.6668C19.3637 36.6668 18.7377 36.5062 18.18 36.2L6.93 29.0833C6.34694 28.7647 5.86021 28.2953 5.52069 27.7241C5.18117 27.153 5.00134 26.5011 5 25.8367V13.695C5 12.3467 5.73833 11.105 6.93 10.45L18.18 3.81666C18.7542 3.50006 19.3993 3.33401 20.055 3.33401C20.7107 3.33401 21.3558 3.50006 21.93 3.81666L33.18 10.45H33.125Z" stroke="#064E3B" stroke-width="3" stroke-linecap="round" stroke-linejoin="round"/>
<path d="M15 20C15 21.3261 15.5268 22.5979 16.4645 23.5355C17.4021 24.4732 18.6739 25 20 25C21.3261 25 22.5979 24.4732 23.5355 23.5355C24.4732 22.5979 25 21.3261 25 20C25 18.6739 24.4732 17.4021 23.5355 16.4645C22.5979 15.5268 21.3261 15 20 15C18.6739 15 17.4021 15.5268 16.4645 16.4645C15.5268 17.4021 15 18.6739 15 20Z" stroke="#064E3B" stroke-width="3" stroke-linecap="round" stroke-linejoin="round"/>
</svg>
